<svg width="48" height="48" viewBox="0 0 48 48" fill="none" xmlns="http://www.w3.org/2000/svg">
<path fill-rule="evenodd" clip-rule="evenodd" d="M5.49492 4.50118C5.27968 4.69621 5.093 5.02679 5.04939 5.43467C4.03584 14.9195 4.02614 20.152 5.04915 29.6318C5.05786 29.7125 5.06198 29.7935 5.0615 29.8747C5.05896 30.2922 5.46581 30.7489 5.88001 30.7947L5.93232 30.8012C9.74988 31.319 13.4038 32.5506 16.7159 34.4025C17.7489 34.9798 18.118 36.2852 17.5405 37.3181C16.963 38.351 15.6575 38.7199 14.6246 38.1426C11.784 36.5547 8.65123 35.4974 5.37805 35.0504C2.84269 34.7539 0.832923 32.5307 0.777114 29.9873C-0.267933 20.2633 -0.25373 14.7286 0.788103 4.97938C1.07739 2.27235 3.40278 -0.414945 6.71041 0.0535149L6.76081 0.0612633C12.8104 1.06539 18.4012 3.85929 22.8248 8.05685C27.2484 3.85877 32.8397 1.06451 38.8897 0.0603085L38.9401 0.0525601C40.8034 -0.211351 42.2801 0.774469 43.1478 1.66861C44.0011 2.54802 44.7043 3.77444 44.8562 4.92607C46.1511 14.7508 46.0805 20.3341 44.8579 30.1261C44.7112 31.3004 43.6405 32.1334 42.4662 31.9868C41.292 31.8402 40.4589 30.7695 40.6053 29.5953C41.7867 20.135 41.8505 14.92 40.6083 5.4936L40.6063 5.49018C40.5984 5.46529 40.5699 5.37255 40.4897 5.22302C40.3865 5.03118 40.2412 4.82675 40.0721 4.65281C39.901 4.4765 39.7488 4.37523 39.6443 4.32754C39.5952 4.3054 39.5651 4.29854 39.5527 4.29645L39.5445 4.29552C33.9849 5.22864 28.8781 7.91993 24.9688 11.9638V16.7108C24.9688 17.8941 24.0095 18.8534 22.826 18.8534C21.6426 18.8534 20.6833 17.8941 20.6833 16.7108V11.9663C16.7704 7.91808 11.6575 5.22504 6.09141 4.29405C5.87956 4.26871 5.68527 4.32874 5.49492 4.50118ZM30.2492 22.6645C27.538 22.6645 25.3402 24.8625 25.3402 27.5738V40.0912L24.2874 40.5423C21.4763 41.7473 19.9349 44.3826 19.8586 47.0675C19.8516 47.3123 19.944 47.5495 20.1147 47.7254C20.2855 47.9009 20.52 48 20.7649 48H47.0586C47.5304 48 47.9233 47.6383 47.962 47.168C48.2661 43.493 46.7206 40.4333 44.1458 38.3212C41.7953 36.3929 38.601 35.2588 35.1581 35.0895V27.5738C35.1581 24.8625 32.9603 22.6645 30.2492 22.6645Z" fill="#009869"/>
</svg>
